<svg id="svg" version="1.1" xmlns="http://www.w3.org/2000/svg" xmlns:xlink="http://www.w3.org/1999/xlink" width="400" height="300" viewBox="50, 0, 250,275">
    <g id="svgg">
        <path id="path0" d="M96.016 97.013 C 71.506 121.524,51.451 141.727,51.450 141.909 C 51.449 142.091,71.577 162.285,96.180 186.784 L 140.913 231.328 151.870 220.394 L 162.826 209.460 169.878 216.517 C 173.756 220.398,176.929 223.663,176.929 223.772 C 176.929 223.881,168.813 232.105,158.892 242.047 L 140.855 260.124 103.092 222.489 L 65.329 184.853 69.511 180.627 C 71.811 178.302,73.693 176.219,73.693 175.997 C 73.693 175.562,67.563 169.295,67.139 169.295 C 66.998 169.295,63.374 172.805,59.086 177.097 L 51.289 184.898 95.935 229.545 C 120.490 254.100,140.655 274.188,140.746 274.185 C 140.838 274.181,159.417 255.733,182.032 233.189 C 204.648 210.645,223.246 192.199,223.361 192.199 C 223.476 192.199,232.308 200.938,242.988 211.618 C 253.667 222.299,262.605 231.037,262.850 231.037 C 263.306 231.037,318.008 176.420,318.008 175.964 C 318.008 175.639,311.464 169.295,311.128 169.295 C 310.988 169.295,300.081 180.086,286.891 193.275 L 262.908 217.256 258.215 212.611 C 251.537 206.004,234.531 188.995,232.371 186.765 L 230.552 184.886 257.267 158.169 C 271.960 143.475,284.132 131.452,284.315 131.452 C 284.499 131.452,296.673 143.477,311.369 158.174 L 338.090 184.896 300.581 222.407 C 279.951 243.037,262.926 259.917,262.749 259.917 C 262.571 259.917,251.702 249.199,238.595 236.100 C 225.487 223.000,214.653 212.246,214.518 212.202 C 214.384 212.158,212.735 213.670,210.855 215.561 L 207.436 218.999 235.024 246.512 C 250.197 261.644,262.715 274.062,262.842 274.108 C 262.968 274.154,283.161 254.101,307.716 229.546 L 352.360 184.900 323.438 155.936 C 307.530 140.005,287.526 119.913,278.985 111.286 C 270.443 102.660,263.218 95.602,262.929 95.602 C 262.639 95.602,257.923 100.083,252.448 105.560 C 246.973 111.037,242.345 115.519,242.163 115.519 C 241.792 115.519,228.050 101.882,228.050 101.515 C 228.050 101.126,262.336 66.722,262.723 66.722 C 263.118 66.722,337.683 141.190,337.883 141.784 C 337.950 141.985,336.086 144.075,333.739 146.427 L 329.472 150.704 332.779 154.024 C 334.599 155.850,336.268 157.344,336.490 157.344 C 337.003 157.344,351.663 142.532,351.813 141.863 C 351.927 141.354,263.311 52.361,262.856 52.528 C 262.727 52.575,245.917 69.251,225.501 89.584 C 205.086 109.917,186.551 128.364,184.313 130.577 L 180.245 134.600 160.578 114.935 L 140.911 95.270 113.198 122.985 L 85.484 150.700 88.794 154.022 C 90.614 155.849,92.256 157.344,92.441 157.344 C 92.627 157.344,103.571 146.552,116.762 133.362 L 140.746 109.380 156.846 125.477 C 165.701 134.330,172.946 141.734,172.946 141.930 C 172.946 142.345,119.697 195.519,119.282 195.519 C 118.883 195.519,65.726 142.307,65.726 141.908 C 65.726 141.727,82.623 124.680,103.275 104.028 L 140.824 66.478 164.831 90.501 C 178.035 103.713,188.963 114.523,189.115 114.523 C 189.393 114.523,194.669 109.237,195.516 108.110 C 195.913 107.582,141.663 52.448,140.747 52.448 C 140.655 52.448,120.526 72.502,96.016 97.013 M270.122 116.594 C 273.820 120.290,276.846 123.540,276.846 123.818 C 276.846 124.363,264.273 137.095,263.734 137.095 C 263.304 137.095,249.627 123.423,249.627 122.994 C 249.627 122.455,262.354 109.876,262.898 109.876 C 263.172 109.876,266.423 112.899,270.122 116.594 M202.617 137.465 C 209.371 139.289,212.780 144.337,212.780 152.512 L 212.780 156.017 214.191 156.027 C 216.910 156.048,216.763 155.249,216.763 170.066 C 216.763 182.724,216.740 183.226,216.121 183.557 C 215.146 184.079,183.495 184.026,182.971 183.502 C 182.383 182.914,182.399 156.828,182.988 156.460 C 183.216 156.317,184.075 156.121,184.896 156.025 L 186.390 155.851 186.586 151.535 C 186.694 149.162,186.936 146.772,187.124 146.224 C 189.333 139.794,196.416 135.789,202.617 137.465 M196.462 141.052 C 191.996 142.496,189.711 146.630,189.935 152.863 L 190.041 155.851 199.668 155.851 L 209.295 155.851 209.395 153.361 C 209.632 147.515,208.237 144.341,204.315 141.810 C 202.878 140.882,198.341 140.444,196.462 141.052 M198.189 164.558 C 195.949 165.440,195.355 168.495,197.041 170.458 C 197.705 171.229,197.842 171.749,197.842 173.480 C 197.842 176.156,198.324 177.261,199.489 177.261 C 200.865 177.261,201.162 176.690,201.162 174.041 C 201.162 172.093,201.287 171.493,201.801 170.979 C 204.827 167.953,202.061 163.034,198.189 164.558 M148.634 195.273 L 155.685 202.329 148.215 209.793 L 140.745 217.258 133.617 210.123 L 126.490 202.988 133.827 195.602 C 137.863 191.539,141.259 188.216,141.374 188.216 C 141.489 188.216,144.756 191.391,148.634 195.273 M288.133 331.618 C 288.133 331.803,289.018 331.950,290.124 331.950 C 291.231 331.950,292.116 331.803,292.116 331.618 C 292.116 331.434,291.231 331.286,290.124 331.286 C 289.018 331.286,288.133 331.434,288.133 331.618 " stroke="none" fill="#23729a" fill-rule="evenodd"></path>
    </g>
</svg>